<svg id="Group_10617" data-name="Group 10617" xmlns="http://www.w3.org/2000/svg" width="69.833" height="12.31" viewBox="0 0 69.833 12.31">
  <path id="Path_10574" data-name="Path 10574" d="M34.757,44.232a1.033,1.033,0,0,1-.484-.12L31.5,42.655a.148.148,0,0,0-.14,0l-2.77,1.456a1.039,1.039,0,0,1-1.508-1.1l.529-3.084a.15.15,0,0,0-.044-.133L25.33,37.613a1.039,1.039,0,0,1,.578-1.773L29,35.39a.15.15,0,0,0,.113-.082L30.5,32.5a1.039,1.039,0,0,1,1.864,0l1.385,2.806a.151.151,0,0,0,.113.082l3.1.45a1.04,1.04,0,0,1,.578,1.773L35.294,39.8a.151.151,0,0,0-.044.133l.529,3.084a1.041,1.041,0,0,1-1.022,1.216Zm-3.324-2.483a1.033,1.033,0,0,1,.484.12l2.77,1.456a.143.143,0,0,0,.158-.011.144.144,0,0,0,.06-.147l-.529-3.085a1.041,1.041,0,0,1,.3-.92l2.242-2.185a.15.15,0,0,0-.084-.256l-3.1-.45a1.038,1.038,0,0,1-.782-.568L31.566,32.9a.15.15,0,0,0-.269,0L29.913,35.7a1.038,1.038,0,0,1-.783.568l-3.1.451a.15.15,0,0,0-.083.256l2.241,2.185a1.041,1.041,0,0,1,.3.92l-.529,3.085a.15.15,0,0,0,.219.158l2.77-1.456a1.038,1.038,0,0,1,.484-.12Z" transform="translate(-25.016 -31.921)" fill="#1ab2ed"/>
  <path id="Path_10575" data-name="Path 10575" d="M34.757,44.232a1.033,1.033,0,0,1-.484-.12L31.5,42.655a.148.148,0,0,0-.14,0l-2.77,1.456a1.039,1.039,0,0,1-1.508-1.1l.529-3.084a.15.15,0,0,0-.044-.133L25.33,37.613a1.039,1.039,0,0,1,.578-1.773L29,35.39a.15.15,0,0,0,.113-.082L30.5,32.5a1.039,1.039,0,0,1,1.864,0l1.385,2.806a.151.151,0,0,0,.113.082l3.1.45a1.04,1.04,0,0,1,.578,1.773L35.294,39.8a.151.151,0,0,0-.044.133l.529,3.084a1.041,1.041,0,0,1-1.022,1.216Zm-3.324-2.483a1.033,1.033,0,0,1,.484.12l2.77,1.456a.143.143,0,0,0,.158-.011.144.144,0,0,0,.06-.147l-.529-3.085a1.041,1.041,0,0,1,.3-.92l2.242-2.185a.15.15,0,0,0-.084-.256l-3.1-.45a1.038,1.038,0,0,1-.782-.568L31.566,32.9a.15.15,0,0,0-.269,0L29.913,35.7a1.038,1.038,0,0,1-.783.568l-3.1.451a.15.15,0,0,0-.083.256l2.241,2.185a1.041,1.041,0,0,1,.3.92l-.529,3.085a.15.15,0,0,0,.219.158l2.77-1.456a1.038,1.038,0,0,1,.484-.12Z" transform="translate(-11.016 -31.921)" fill="#1ab2ed"/>
  <path id="Path_10576" data-name="Path 10576" d="M34.757,44.232a1.033,1.033,0,0,1-.484-.12L31.5,42.655a.148.148,0,0,0-.14,0l-2.77,1.456a1.039,1.039,0,0,1-1.508-1.1l.529-3.084a.15.15,0,0,0-.044-.133L25.33,37.613a1.039,1.039,0,0,1,.578-1.773L29,35.39a.15.15,0,0,0,.113-.082L30.5,32.5a1.039,1.039,0,0,1,1.864,0l1.385,2.806a.151.151,0,0,0,.113.082l3.1.45a1.04,1.04,0,0,1,.578,1.773L35.294,39.8a.151.151,0,0,0-.044.133l.529,3.084a1.041,1.041,0,0,1-1.022,1.216Zm-3.324-2.483a1.033,1.033,0,0,1,.484.12l2.77,1.456a.143.143,0,0,0,.158-.011.144.144,0,0,0,.06-.147l-.529-3.085a1.041,1.041,0,0,1,.3-.92l2.242-2.185a.15.15,0,0,0-.084-.256l-3.1-.45a1.038,1.038,0,0,1-.782-.568L31.566,32.9a.15.15,0,0,0-.269,0L29.913,35.7a1.038,1.038,0,0,1-.783.568l-3.1.451a.15.15,0,0,0-.083.256l2.241,2.185a1.041,1.041,0,0,1,.3.92l-.529,3.085a.15.15,0,0,0,.219.158l2.77-1.456a1.038,1.038,0,0,1,.484-.12Z" transform="translate(3.984 -31.921)" fill="#1ab2ed"/>
  <path id="Path_10577" data-name="Path 10577" d="M34.757,44.232a1.033,1.033,0,0,1-.484-.12L31.5,42.655a.148.148,0,0,0-.14,0l-2.77,1.456a1.039,1.039,0,0,1-1.508-1.1l.529-3.084a.15.15,0,0,0-.044-.133L25.33,37.613a1.039,1.039,0,0,1,.578-1.773L29,35.39a.15.15,0,0,0,.113-.082L30.5,32.5a1.039,1.039,0,0,1,1.864,0l1.385,2.806a.151.151,0,0,0,.113.082l3.1.45a1.04,1.04,0,0,1,.578,1.773L35.294,39.8a.151.151,0,0,0-.044.133l.529,3.084a1.041,1.041,0,0,1-1.022,1.216Zm-3.324-2.483a1.033,1.033,0,0,1,.484.12l2.77,1.456a.143.143,0,0,0,.158-.011.144.144,0,0,0,.06-.147l-.529-3.085a1.041,1.041,0,0,1,.3-.92l2.242-2.185a.15.15,0,0,0-.084-.256l-3.1-.45a1.038,1.038,0,0,1-.782-.568L31.566,32.9a.15.15,0,0,0-.269,0L29.913,35.7a1.038,1.038,0,0,1-.783.568l-3.1.451a.15.15,0,0,0-.083.256l2.241,2.185a1.041,1.041,0,0,1,.3.92l-.529,3.085a.15.15,0,0,0,.219.158l2.77-1.456a1.038,1.038,0,0,1,.484-.12Z" transform="translate(17.984 -31.921)" fill="#1ab2ed"/>
  <path id="Path_10578" data-name="Path 10578" d="M34.757,44.232a1.033,1.033,0,0,1-.484-.12L31.5,42.655a.148.148,0,0,0-.14,0l-2.77,1.456a1.039,1.039,0,0,1-1.508-1.1l.529-3.084a.15.15,0,0,0-.044-.133L25.33,37.613a1.039,1.039,0,0,1,.578-1.773L29,35.39a.15.15,0,0,0,.113-.082L30.5,32.5a1.039,1.039,0,0,1,1.864,0l1.385,2.806a.151.151,0,0,0,.113.082l3.1.45a1.04,1.04,0,0,1,.578,1.773L35.294,39.8a.151.151,0,0,0-.044.133l.529,3.084a1.041,1.041,0,0,1-1.022,1.216Zm-3.324-2.483a1.033,1.033,0,0,1,.484.12l2.77,1.456a.143.143,0,0,0,.158-.011.144.144,0,0,0,.06-.147l-.529-3.085a1.041,1.041,0,0,1,.3-.92l2.242-2.185a.15.15,0,0,0-.084-.256l-3.1-.45a1.038,1.038,0,0,1-.782-.568L31.566,32.9a.15.15,0,0,0-.269,0L29.913,35.7a1.038,1.038,0,0,1-.783.568l-3.1.451a.15.15,0,0,0-.083.256l2.241,2.185a1.041,1.041,0,0,1,.3.92l-.529,3.085a.15.15,0,0,0,.219.158l2.77-1.456a1.038,1.038,0,0,1,.484-.12Z" transform="translate(31.984 -31.921)" fill="#1ab2ed"/>
</svg>
