<svg xmlns="http://www.w3.org/2000/svg" width="19.376" height="18.534" viewBox="0 0 19.376 18.534">
  <g id="Group_10287" data-name="Group 10287" transform="translate(-1553 -247.274)">
    <g id="_1828391" data-name="1828391" transform="translate(1553 247.274)">
      <path id="Path_8480" data-name="Path 8480" d="M12.847,220.264H.632a.632.632,0,0,1,0-1.264H12.847a.632.632,0,0,1,0,1.264Zm0,0" transform="translate(0 -210.365)" fill="#fff"/>
      <path id="Path_8481" data-name="Path 8481" d="M224.636,141.634a.632.632,0,0,1-.447-1.079l2.923-2.923-2.923-2.923a.632.632,0,1,1,.894-.894l3.37,3.37a.632.632,0,0,1,0,.894l-3.37,3.37A.627.627,0,0,1,224.636,141.634Zm0,0" transform="translate(-215.158 -128.365)" fill="#fff"/>
      <path id="Path_8482" data-name="Path 8482" d="M45.141,18.867a9.219,9.219,0,0,1-8.625-5.877.632.632,0,1,1,1.176-.462,8,8,0,1,0,0-5.857.632.632,0,1,1-1.176-.462,9.267,9.267,0,1,1,8.625,12.657Zm0,0" transform="translate(-35.032 -0.333)" fill="#fff"/>
    </g>
  </g>
</svg>
